<svg width="512" height="512" viewBox="0 0 512 512" fill="none" xmlns="http://www.w3.org/2000/svg">
<path d="M181.35 171.609L127.282 217.852L201.932 281.694L127.282 345.536L181.35 391.779L256 327.937L330.65 391.779L384.718 345.536L310.068 281.694L384.718 217.852L366.549 202.313L330.65 171.609L256 235.451L181.35 171.609Z" fill="#502000" stroke="#FF7F2A" stroke-width="10.1017" stroke-linejoin="round"/>
<path d="M127.282 166.464V217.852L201.932 281.694V230.306L127.282 166.464Z" fill="#502000" stroke="#FF7F2A" stroke-width="10.1017" stroke-linejoin="round"/>
<path d="M384.718 166.464V217.852L310.068 281.694V230.306L384.718 166.464Z" fill="#502000" stroke="#FF7F2A" stroke-width="10.1017" stroke-linejoin="round"/>
<path d="M181.35 120.221L127.283 166.464L201.932 230.306L127.283 294.148L181.35 340.391L256 276.549L330.65 340.391L384.718 294.148L310.068 230.306L384.718 166.464L330.65 120.221L256 184.063L181.35 120.221Z" fill="#502000" stroke="#FF7F2A" stroke-width="10.1017" stroke-linejoin="round"/>
<path d="M330.65 391.779V340.391L384.718 294.148V345.536L330.65 391.779Z" fill="#502000" stroke="#FF7F2A" stroke-width="10.1017" stroke-linejoin="round"/>
<path d="M330.649 391.779V340.391L256 276.549V327.937L330.649 391.779Z" fill="#502000" stroke="#FF7F2A" stroke-width="10.1017" stroke-linejoin="round"/>
<path d="M127.282 294.148L181.349 340.391V391.779L127.282 345.536V294.148Z" fill="#502000" stroke="#FF7F2A" stroke-width="10.1017" stroke-linejoin="round"/>
</svg>
